<svg width="615" height="615" fill="none" xmlns="http://www.w3.org/2000/svg"><circle cx="307.5" cy="307.5" r="307.5" fill="#F50057"/><path d="M237.4 202.6V412h-42v-89.1h-89.7V412h-42V202.6h42v86.1h89.7v-86.1h42zM268.539 307c0-20.6 4.6-39 13.8-55.2 9.4-16.4 22.1-29.1 38.1-38.1 16.2-9.2 34.3-13.8 54.3-13.8 23.4 0 43.9 6 61.5 18s29.9 28.6 36.9 49.8h-48.3c-4.8-10-11.6-17.5-20.4-22.5-8.6-5-18.6-7.5-30-7.5-12.2 0-23.1 2.9-32.7 8.7-9.4 5.6-16.8 13.6-22.2 24-5.2 10.4-7.8 22.6-7.8 36.6 0 13.8 2.6 26 7.8 36.6 5.4 10.4 12.8 18.5 22.2 24.3 9.6 5.6 20.5 8.4 32.7 8.4 11.4 0 21.4-2.5 30-7.5 8.8-5.2 15.6-12.8 20.4-22.8h48.3c-7 21.4-19.3 38.1-36.9 50.1-17.4 11.8-37.9 17.7-61.5 17.7-20 0-38.1-4.5-54.3-13.5-16-9.2-28.7-21.9-38.1-38.1-9.2-16.2-13.8-34.6-13.8-55.2zm282.474-104.4V412h-42V202.6h42z" fill="#fff"/><circle cx="530" cy="169" r="21" fill="#fff"/></svg>